<mxfile host="app.diagrams.net" modified="2024-05-27T08:41:39.533Z" agent="Mozilla/5.0 (X11; Ubuntu; Linux x86_64; rv:126.0) Gecko/20100101 Firefox/126.0" etag="5LLFUYVlPGoUgD6Ahll9" version="24.4.7" type="github">
  <diagram name="Page-1" id="e7e014a7-5840-1c2e-5031-d8a46d1fe8dd">
    <mxGraphModel dx="1687" dy="967" grid="1" gridSize="10" guides="1" tooltips="1" connect="1" arrows="1" fold="1" page="1" pageScale="1" pageWidth="1169" pageHeight="826" background="none" math="0" shadow="0">
      <root>
        <mxCell id="0" />
        <mxCell id="1" parent="0" />
        <mxCell id="AvksXb3EGKrtodToCyRi-52" style="rounded=0;orthogonalLoop=1;jettySize=auto;html=1;" edge="1" parent="1" source="AvksXb3EGKrtodToCyRi-41">
          <mxGeometry relative="1" as="geometry">
            <mxPoint x="180" y="1100" as="targetPoint" />
          </mxGeometry>
        </mxCell>
        <mxCell id="AvksXb3EGKrtodToCyRi-41" value="abonné" style="shape=umlActor;verticalLabelPosition=bottom;verticalAlign=top;html=1;" vertex="1" parent="1">
          <mxGeometry x="160" y="40" width="40" height="80" as="geometry" />
        </mxCell>
        <mxCell id="AvksXb3EGKrtodToCyRi-53" style="edgeStyle=orthogonalEdgeStyle;rounded=0;orthogonalLoop=1;jettySize=auto;html=1;" edge="1" parent="1" source="AvksXb3EGKrtodToCyRi-42">
          <mxGeometry relative="1" as="geometry">
            <mxPoint x="380" y="1100" as="targetPoint" />
          </mxGeometry>
        </mxCell>
        <mxCell id="AvksXb3EGKrtodToCyRi-42" value="employe" style="shape=umlActor;verticalLabelPosition=bottom;verticalAlign=top;html=1;" vertex="1" parent="1">
          <mxGeometry x="360" y="40" width="40" height="80" as="geometry" />
        </mxCell>
        <mxCell id="AvksXb3EGKrtodToCyRi-54" style="edgeStyle=orthogonalEdgeStyle;rounded=0;orthogonalLoop=1;jettySize=auto;html=1;" edge="1" parent="1" source="AvksXb3EGKrtodToCyRi-43">
          <mxGeometry relative="1" as="geometry">
            <mxPoint x="580" y="1100" as="targetPoint" />
          </mxGeometry>
        </mxCell>
        <mxCell id="AvksXb3EGKrtodToCyRi-43" value="benevole" style="shape=umlActor;verticalLabelPosition=bottom;verticalAlign=top;html=1;" vertex="1" parent="1">
          <mxGeometry x="560" y="40" width="40" height="80" as="geometry" />
        </mxCell>
        <mxCell id="AvksXb3EGKrtodToCyRi-55" style="edgeStyle=orthogonalEdgeStyle;rounded=0;orthogonalLoop=1;jettySize=auto;html=1;" edge="1" parent="1" source="AvksXb3EGKrtodToCyRi-45">
          <mxGeometry relative="1" as="geometry">
            <mxPoint x="815" y="1100" as="targetPoint" />
          </mxGeometry>
        </mxCell>
        <mxCell id="AvksXb3EGKrtodToCyRi-45" value="&lt;div&gt;systeme&lt;/div&gt;" style="html=1;whiteSpace=wrap;" vertex="1" parent="1">
          <mxGeometry x="760" y="40" width="110" height="80" as="geometry" />
        </mxCell>
        <mxCell id="AvksXb3EGKrtodToCyRi-59" value="" style="edgeStyle=none;orthogonalLoop=1;jettySize=auto;html=1;rounded=0;" edge="1" parent="1">
          <mxGeometry width="100" relative="1" as="geometry">
            <mxPoint x="180" y="180" as="sourcePoint" />
            <mxPoint x="810" y="180" as="targetPoint" />
            <Array as="points">
              <mxPoint x="230" y="180" />
            </Array>
          </mxGeometry>
        </mxCell>
        <mxCell id="AvksXb3EGKrtodToCyRi-61" value="consulter liste des documents" style="edgeLabel;html=1;align=center;verticalAlign=middle;resizable=0;points=[];" vertex="1" connectable="0" parent="AvksXb3EGKrtodToCyRi-59">
          <mxGeometry x="0.0291" y="-2" relative="1" as="geometry">
            <mxPoint x="-4" as="offset" />
          </mxGeometry>
        </mxCell>
        <mxCell id="AvksXb3EGKrtodToCyRi-60" value="" style="edgeStyle=none;orthogonalLoop=1;jettySize=auto;html=1;rounded=0;" edge="1" parent="1">
          <mxGeometry width="100" relative="1" as="geometry">
            <mxPoint x="180" y="260" as="sourcePoint" />
            <mxPoint x="810" y="260" as="targetPoint" />
            <Array as="points">
              <mxPoint x="230" y="260" />
            </Array>
          </mxGeometry>
        </mxCell>
        <mxCell id="AvksXb3EGKrtodToCyRi-62" value="Rechercher documents" style="edgeLabel;html=1;align=center;verticalAlign=middle;resizable=0;points=[];" vertex="1" connectable="0" parent="AvksXb3EGKrtodToCyRi-60">
          <mxGeometry x="-0.0423" y="-2" relative="1" as="geometry">
            <mxPoint x="18" as="offset" />
          </mxGeometry>
        </mxCell>
        <mxCell id="AvksXb3EGKrtodToCyRi-64" value="" style="edgeStyle=none;orthogonalLoop=1;jettySize=auto;html=1;rounded=0;dashed=1;dashPattern=12 12;" edge="1" parent="1">
          <mxGeometry width="100" relative="1" as="geometry">
            <mxPoint x="810" y="220" as="sourcePoint" />
            <mxPoint x="180" y="220" as="targetPoint" />
            <Array as="points" />
          </mxGeometry>
        </mxCell>
        <mxCell id="AvksXb3EGKrtodToCyRi-65" value="Liste des documents affiché" style="edgeLabel;html=1;align=center;verticalAlign=middle;resizable=0;points=[];" vertex="1" connectable="0" parent="AvksXb3EGKrtodToCyRi-64">
          <mxGeometry x="-0.054" y="-3" relative="1" as="geometry">
            <mxPoint x="-12" as="offset" />
          </mxGeometry>
        </mxCell>
        <mxCell id="AvksXb3EGKrtodToCyRi-66" value="" style="edgeStyle=none;orthogonalLoop=1;jettySize=auto;html=1;rounded=0;dashed=1;dashPattern=12 12;" edge="1" parent="1">
          <mxGeometry width="100" relative="1" as="geometry">
            <mxPoint x="810" y="300" as="sourcePoint" />
            <mxPoint x="180" y="300" as="targetPoint" />
            <Array as="points" />
          </mxGeometry>
        </mxCell>
        <mxCell id="AvksXb3EGKrtodToCyRi-67" value="Résultat recherche" style="edgeLabel;html=1;align=center;verticalAlign=middle;resizable=0;points=[];" vertex="1" connectable="0" parent="AvksXb3EGKrtodToCyRi-66">
          <mxGeometry x="-0.054" y="-3" relative="1" as="geometry">
            <mxPoint x="-12" y="3" as="offset" />
          </mxGeometry>
        </mxCell>
        <mxCell id="AvksXb3EGKrtodToCyRi-68" value="" style="edgeStyle=none;orthogonalLoop=1;jettySize=auto;html=1;rounded=0;" edge="1" parent="1">
          <mxGeometry width="100" relative="1" as="geometry">
            <mxPoint x="180" y="350" as="sourcePoint" />
            <mxPoint x="380" y="350" as="targetPoint" />
            <Array as="points" />
          </mxGeometry>
        </mxCell>
        <mxCell id="AvksXb3EGKrtodToCyRi-69" value="Emprunter documents" style="edgeLabel;html=1;align=center;verticalAlign=middle;resizable=0;points=[];" vertex="1" connectable="0" parent="AvksXb3EGKrtodToCyRi-68">
          <mxGeometry x="0.11" relative="1" as="geometry">
            <mxPoint x="-11" as="offset" />
          </mxGeometry>
        </mxCell>
        <mxCell id="AvksXb3EGKrtodToCyRi-70" value="" style="edgeStyle=none;orthogonalLoop=1;jettySize=auto;html=1;rounded=0;" edge="1" parent="1">
          <mxGeometry width="100" relative="1" as="geometry">
            <mxPoint x="380" y="370" as="sourcePoint" />
            <mxPoint x="810" y="370" as="targetPoint" />
            <Array as="points" />
          </mxGeometry>
        </mxCell>
        <mxCell id="AvksXb3EGKrtodToCyRi-71" value="&lt;div&gt;Enregistrer emprunt&lt;/div&gt;" style="edgeLabel;html=1;align=center;verticalAlign=middle;resizable=0;points=[];" vertex="1" connectable="0" parent="AvksXb3EGKrtodToCyRi-70">
          <mxGeometry x="-0.3163" y="-1" relative="1" as="geometry">
            <mxPoint x="53" as="offset" />
          </mxGeometry>
        </mxCell>
        <mxCell id="AvksXb3EGKrtodToCyRi-72" value="" style="edgeStyle=none;orthogonalLoop=1;jettySize=auto;html=1;rounded=0;dashed=1;dashPattern=12 12;" edge="1" parent="1">
          <mxGeometry width="100" relative="1" as="geometry">
            <mxPoint x="810" y="420" as="sourcePoint" />
            <mxPoint x="380" y="420" as="targetPoint" />
            <Array as="points" />
          </mxGeometry>
        </mxCell>
        <mxCell id="AvksXb3EGKrtodToCyRi-73" value="Emprunt enregistré" style="edgeLabel;html=1;align=center;verticalAlign=middle;resizable=0;points=[];" vertex="1" connectable="0" parent="AvksXb3EGKrtodToCyRi-72">
          <mxGeometry x="-0.054" y="-3" relative="1" as="geometry">
            <mxPoint x="-27" y="3" as="offset" />
          </mxGeometry>
        </mxCell>
        <mxCell id="AvksXb3EGKrtodToCyRi-74" value="" style="edgeStyle=none;orthogonalLoop=1;jettySize=auto;html=1;rounded=0;" edge="1" parent="1">
          <mxGeometry width="100" relative="1" as="geometry">
            <mxPoint x="180" y="460" as="sourcePoint" />
            <mxPoint x="380" y="460" as="targetPoint" />
            <Array as="points" />
          </mxGeometry>
        </mxCell>
        <mxCell id="AvksXb3EGKrtodToCyRi-75" value="Retourner document" style="edgeLabel;html=1;align=center;verticalAlign=middle;resizable=0;points=[];" vertex="1" connectable="0" parent="AvksXb3EGKrtodToCyRi-74">
          <mxGeometry x="0.11" relative="1" as="geometry">
            <mxPoint x="-11" as="offset" />
          </mxGeometry>
        </mxCell>
        <mxCell id="AvksXb3EGKrtodToCyRi-76" value="" style="edgeStyle=none;orthogonalLoop=1;jettySize=auto;html=1;rounded=0;" edge="1" parent="1">
          <mxGeometry width="100" relative="1" as="geometry">
            <mxPoint x="380" y="490" as="sourcePoint" />
            <mxPoint x="810" y="490" as="targetPoint" />
            <Array as="points" />
          </mxGeometry>
        </mxCell>
        <mxCell id="AvksXb3EGKrtodToCyRi-77" value="&lt;div&gt;Enregistrer retour&lt;br&gt;&lt;/div&gt;" style="edgeLabel;html=1;align=center;verticalAlign=middle;resizable=0;points=[];" vertex="1" connectable="0" parent="AvksXb3EGKrtodToCyRi-76">
          <mxGeometry x="-0.3163" y="-1" relative="1" as="geometry">
            <mxPoint x="53" as="offset" />
          </mxGeometry>
        </mxCell>
        <mxCell id="AvksXb3EGKrtodToCyRi-78" value="" style="edgeStyle=none;orthogonalLoop=1;jettySize=auto;html=1;rounded=0;dashed=1;dashPattern=12 12;" edge="1" parent="1">
          <mxGeometry width="100" relative="1" as="geometry">
            <mxPoint x="810" y="530" as="sourcePoint" />
            <mxPoint x="380" y="530" as="targetPoint" />
            <Array as="points" />
          </mxGeometry>
        </mxCell>
        <mxCell id="AvksXb3EGKrtodToCyRi-79" value="Retour enregistré" style="edgeLabel;html=1;align=center;verticalAlign=middle;resizable=0;points=[];" vertex="1" connectable="0" parent="AvksXb3EGKrtodToCyRi-78">
          <mxGeometry x="-0.054" y="-3" relative="1" as="geometry">
            <mxPoint x="-27" y="3" as="offset" />
          </mxGeometry>
        </mxCell>
        <mxCell id="AvksXb3EGKrtodToCyRi-81" value="" style="edgeStyle=none;orthogonalLoop=1;jettySize=auto;html=1;rounded=0;" edge="1" parent="1">
          <mxGeometry width="100" relative="1" as="geometry">
            <mxPoint x="180" y="560" as="sourcePoint" />
            <mxPoint x="380" y="560" as="targetPoint" />
            <Array as="points" />
          </mxGeometry>
        </mxCell>
        <mxCell id="AvksXb3EGKrtodToCyRi-82" value="S&#39;inscrire" style="edgeLabel;html=1;align=center;verticalAlign=middle;resizable=0;points=[];" vertex="1" connectable="0" parent="AvksXb3EGKrtodToCyRi-81">
          <mxGeometry x="0.11" relative="1" as="geometry">
            <mxPoint x="-11" as="offset" />
          </mxGeometry>
        </mxCell>
        <mxCell id="AvksXb3EGKrtodToCyRi-83" value="" style="edgeStyle=none;orthogonalLoop=1;jettySize=auto;html=1;rounded=0;" edge="1" parent="1">
          <mxGeometry width="100" relative="1" as="geometry">
            <mxPoint x="380" y="590" as="sourcePoint" />
            <mxPoint x="810" y="590" as="targetPoint" />
            <Array as="points" />
          </mxGeometry>
        </mxCell>
        <mxCell id="AvksXb3EGKrtodToCyRi-84" value="&lt;div&gt;Enregistrer inscription&lt;/div&gt;" style="edgeLabel;html=1;align=center;verticalAlign=middle;resizable=0;points=[];" vertex="1" connectable="0" parent="AvksXb3EGKrtodToCyRi-83">
          <mxGeometry x="-0.3163" y="-1" relative="1" as="geometry">
            <mxPoint x="53" as="offset" />
          </mxGeometry>
        </mxCell>
        <mxCell id="AvksXb3EGKrtodToCyRi-86" value="" style="edgeStyle=none;orthogonalLoop=1;jettySize=auto;html=1;rounded=0;dashed=1;dashPattern=12 12;" edge="1" parent="1">
          <mxGeometry width="100" relative="1" as="geometry">
            <mxPoint x="810" y="630" as="sourcePoint" />
            <mxPoint x="380" y="630" as="targetPoint" />
            <Array as="points" />
          </mxGeometry>
        </mxCell>
        <mxCell id="AvksXb3EGKrtodToCyRi-87" value="Inscription enregistré" style="edgeLabel;html=1;align=center;verticalAlign=middle;resizable=0;points=[];" vertex="1" connectable="0" parent="AvksXb3EGKrtodToCyRi-86">
          <mxGeometry x="-0.054" y="-3" relative="1" as="geometry">
            <mxPoint x="-27" y="3" as="offset" />
          </mxGeometry>
        </mxCell>
        <mxCell id="AvksXb3EGKrtodToCyRi-88" value="" style="edgeStyle=none;orthogonalLoop=1;jettySize=auto;html=1;rounded=0;" edge="1" parent="1">
          <mxGeometry width="100" relative="1" as="geometry">
            <mxPoint x="180" y="680" as="sourcePoint" />
            <mxPoint x="380" y="680" as="targetPoint" />
            <Array as="points" />
          </mxGeometry>
        </mxCell>
        <mxCell id="AvksXb3EGKrtodToCyRi-89" value="Modifier coordonnées" style="edgeLabel;html=1;align=center;verticalAlign=middle;resizable=0;points=[];" vertex="1" connectable="0" parent="AvksXb3EGKrtodToCyRi-88">
          <mxGeometry x="0.11" relative="1" as="geometry">
            <mxPoint x="-11" as="offset" />
          </mxGeometry>
        </mxCell>
        <mxCell id="AvksXb3EGKrtodToCyRi-91" value="" style="edgeStyle=none;orthogonalLoop=1;jettySize=auto;html=1;rounded=0;" edge="1" parent="1">
          <mxGeometry width="100" relative="1" as="geometry">
            <mxPoint x="380" y="710" as="sourcePoint" />
            <mxPoint x="810" y="710" as="targetPoint" />
            <Array as="points" />
          </mxGeometry>
        </mxCell>
        <mxCell id="AvksXb3EGKrtodToCyRi-92" value="Modifier informations" style="edgeLabel;html=1;align=center;verticalAlign=middle;resizable=0;points=[];" vertex="1" connectable="0" parent="AvksXb3EGKrtodToCyRi-91">
          <mxGeometry x="-0.3163" y="-1" relative="1" as="geometry">
            <mxPoint x="53" as="offset" />
          </mxGeometry>
        </mxCell>
        <mxCell id="AvksXb3EGKrtodToCyRi-93" value="" style="edgeStyle=none;orthogonalLoop=1;jettySize=auto;html=1;rounded=0;dashed=1;dashPattern=12 12;" edge="1" parent="1">
          <mxGeometry width="100" relative="1" as="geometry">
            <mxPoint x="810" y="760" as="sourcePoint" />
            <mxPoint x="380" y="760" as="targetPoint" />
            <Array as="points" />
          </mxGeometry>
        </mxCell>
        <mxCell id="AvksXb3EGKrtodToCyRi-94" value="Information modifié" style="edgeLabel;html=1;align=center;verticalAlign=middle;resizable=0;points=[];" vertex="1" connectable="0" parent="AvksXb3EGKrtodToCyRi-93">
          <mxGeometry x="-0.054" y="-3" relative="1" as="geometry">
            <mxPoint x="-27" y="3" as="offset" />
          </mxGeometry>
        </mxCell>
        <mxCell id="AvksXb3EGKrtodToCyRi-95" value="" style="edgeStyle=none;orthogonalLoop=1;jettySize=auto;html=1;rounded=0;" edge="1" parent="1">
          <mxGeometry width="100" relative="1" as="geometry">
            <mxPoint x="380" y="810" as="sourcePoint" />
            <mxPoint x="810" y="810" as="targetPoint" />
            <Array as="points" />
          </mxGeometry>
        </mxCell>
        <mxCell id="AvksXb3EGKrtodToCyRi-96" value="Consulter état des abonnés" style="edgeLabel;html=1;align=center;verticalAlign=middle;resizable=0;points=[];" vertex="1" connectable="0" parent="AvksXb3EGKrtodToCyRi-95">
          <mxGeometry x="-0.3163" y="-1" relative="1" as="geometry">
            <mxPoint x="53" as="offset" />
          </mxGeometry>
        </mxCell>
        <mxCell id="AvksXb3EGKrtodToCyRi-98" value="" style="edgeStyle=none;orthogonalLoop=1;jettySize=auto;html=1;rounded=0;dashed=1;dashPattern=12 12;" edge="1" parent="1">
          <mxGeometry width="100" relative="1" as="geometry">
            <mxPoint x="810" y="970" as="sourcePoint" />
            <mxPoint x="580" y="970" as="targetPoint" />
            <Array as="points" />
          </mxGeometry>
        </mxCell>
        <mxCell id="AvksXb3EGKrtodToCyRi-101" value="Emprunt enregistré" style="edgeLabel;html=1;align=center;verticalAlign=middle;resizable=0;points=[];" vertex="1" connectable="0" parent="AvksXb3EGKrtodToCyRi-98">
          <mxGeometry x="0.064" relative="1" as="geometry">
            <mxPoint x="12" as="offset" />
          </mxGeometry>
        </mxCell>
        <mxCell id="AvksXb3EGKrtodToCyRi-102" value="" style="edgeStyle=none;orthogonalLoop=1;jettySize=auto;html=1;rounded=0;" edge="1" parent="1">
          <mxGeometry width="100" relative="1" as="geometry">
            <mxPoint x="580" y="920" as="sourcePoint" />
            <mxPoint x="810" y="920" as="targetPoint" />
            <Array as="points" />
          </mxGeometry>
        </mxCell>
        <mxCell id="AvksXb3EGKrtodToCyRi-103" value="Emprunter documents" style="edgeLabel;html=1;align=center;verticalAlign=middle;resizable=0;points=[];" vertex="1" connectable="0" parent="AvksXb3EGKrtodToCyRi-102">
          <mxGeometry x="0.11" relative="1" as="geometry">
            <mxPoint x="-11" as="offset" />
          </mxGeometry>
        </mxCell>
        <mxCell id="AvksXb3EGKrtodToCyRi-104" value="" style="edgeStyle=none;orthogonalLoop=1;jettySize=auto;html=1;rounded=0;dashed=1;dashPattern=12 12;" edge="1" parent="1">
          <mxGeometry width="100" relative="1" as="geometry">
            <mxPoint x="820" y="870" as="sourcePoint" />
            <mxPoint x="390" y="870" as="targetPoint" />
            <Array as="points" />
          </mxGeometry>
        </mxCell>
        <mxCell id="AvksXb3EGKrtodToCyRi-105" value="État des abonnés" style="edgeLabel;html=1;align=center;verticalAlign=middle;resizable=0;points=[];" vertex="1" connectable="0" parent="AvksXb3EGKrtodToCyRi-104">
          <mxGeometry x="0.064" relative="1" as="geometry">
            <mxPoint x="-1" as="offset" />
          </mxGeometry>
        </mxCell>
        <mxCell id="AvksXb3EGKrtodToCyRi-107" value="" style="edgeStyle=none;orthogonalLoop=1;jettySize=auto;html=1;rounded=0;" edge="1" parent="1">
          <mxGeometry width="100" relative="1" as="geometry">
            <mxPoint x="580" y="1020" as="sourcePoint" />
            <mxPoint x="810" y="1020" as="targetPoint" />
            <Array as="points" />
          </mxGeometry>
        </mxCell>
        <mxCell id="AvksXb3EGKrtodToCyRi-108" value="Retourner documents" style="edgeLabel;html=1;align=center;verticalAlign=middle;resizable=0;points=[];" vertex="1" connectable="0" parent="AvksXb3EGKrtodToCyRi-107">
          <mxGeometry x="0.11" relative="1" as="geometry">
            <mxPoint x="-11" as="offset" />
          </mxGeometry>
        </mxCell>
        <mxCell id="AvksXb3EGKrtodToCyRi-109" value="" style="edgeStyle=none;orthogonalLoop=1;jettySize=auto;html=1;rounded=0;dashed=1;dashPattern=12 12;" edge="1" parent="1">
          <mxGeometry width="100" relative="1" as="geometry">
            <mxPoint x="815" y="1060" as="sourcePoint" />
            <mxPoint x="585" y="1060" as="targetPoint" />
            <Array as="points" />
          </mxGeometry>
        </mxCell>
        <mxCell id="AvksXb3EGKrtodToCyRi-110" value="Retour enregistré" style="edgeLabel;html=1;align=center;verticalAlign=middle;resizable=0;points=[];" vertex="1" connectable="0" parent="AvksXb3EGKrtodToCyRi-109">
          <mxGeometry x="0.064" relative="1" as="geometry">
            <mxPoint x="12" as="offset" />
          </mxGeometry>
        </mxCell>
      </root>
    </mxGraphModel>
  </diagram>
</mxfile>
